<svg xmlns="http://www.w3.org/2000/svg" width="265.563" height="251.22" viewBox="0 0 265.563 251.22">
  <g id="Group_459" data-name="Group 459" transform="translate(-3552.099 514.512)">
    <rect id="Rectangle_330" data-name="Rectangle 330" width="238.888" height="212.107" transform="translate(3578.774 -475.399)" fill="#fff"/>
    <path id="Path_43" data-name="Path 43" d="M6.3-81.073a16.069,16.069,0,0,1,5.777-12.341A16.069,16.069,0,0,1,25.26-96.88,105.518,105.518,0,1,1-86.559,57.025a16.069,16.069,0,0,1-.775-13.6,16.069,16.069,0,0,1,9.951-9.308h0a16.069,16.069,0,0,1,19.107,7.652A73.38,73.38,0,1,0,19.487-65.266,16.069,16.069,0,0,1,6.3-81.073Z" transform="translate(3692.453 -377.128)" fill="#a92e21"/>
    <path id="Path_44" data-name="Path 44" d="M21.841,131.255A16.069,16.069,0,0,1,.95,118.112,105.518,105.518,0,0,1,86.573.262a16.069,16.069,0,0,1,18.955,15.807h0A16.069,16.069,0,0,1,92.347,31.876,73.38,73.38,0,0,0,32.8,113.833a16.069,16.069,0,0,1-10.96,17.422Z" transform="translate(3659.645 -514.512) rotate(31)" fill="#efb700"/>
    <path id="Path_45" data-name="Path 45" d="M21.841,131.255A16.069,16.069,0,0,1,.95,118.112,105.518,105.518,0,0,1,86.573.262a16.069,16.069,0,0,1,18.955,15.807h0A16.069,16.069,0,0,1,92.347,31.876,73.38,73.38,0,0,0,32.8,113.833a16.069,16.069,0,0,1-10.96,17.422Z" transform="matrix(0.839, -0.545, 0.545, 0.839, 3552.099, -401.462)" fill="#398254"/>
  </g>
</svg>
