<svg id="Group_507" data-name="Group 507" xmlns="http://www.w3.org/2000/svg" xmlns:xlink="http://www.w3.org/1999/xlink" width="170.019" height="70" viewBox="0 0 170.019 70">
  <defs>
    <clipPath id="clip-path">
      <path id="Path_51" data-name="Path 51" d="M64.633,0,0,21.5,54.015,70Q59.324,35,64.633,0Z" fill="none"/>
    </clipPath>
    <clipPath id="clip-path-2">
      <rect id="Rectangle_394" data-name="Rectangle 394" width="170.019" height="70" fill="#fff"/>
    </clipPath>
    <clipPath id="clip-path-3">
      <path id="Path_54" data-name="Path 54" d="M132.46,57.4v8.1a5.468,5.468,0,0,1-1.2,3.8,3.955,3.955,0,0,1-3.069,1.328q-3.733,0-3.733-4.556V57.4H121.1v9.017a7.562,7.562,0,0,0,1.63,5.283,5.778,5.778,0,0,0,4.477,1.772,6.223,6.223,0,0,0,3.243-.838,5.461,5.461,0,0,0,2.136-2.295l.252,2.753h2.975V57.4Z" transform="translate(-121.103 -57.404)" fill="#fff"/>
    </clipPath>
    <clipPath id="clip-path-4">
      <path id="Path_55" data-name="Path 55" d="M161.611,44.04V66.82h3.354V58.783l6.77,8.036h4.24l-7.657-8.574,6.675-7.119h-4.018l-6.011,6.486V44.04Z" transform="translate(-161.611 -44.04)" fill="#fff"/>
    </clipPath>
    <clipPath id="clip-path-5">
      <path id="Path_56" data-name="Path 56" d="M197.389,58.066a4.361,4.361,0,0,0-1.581,3.432,3.18,3.18,0,0,0,.87,2.357A5.813,5.813,0,0,0,198.86,65.2a20.286,20.286,0,0,0,2.641.759,13.547,13.547,0,0,1,2.674.776,1.614,1.614,0,0,1,.965,1.629,1.922,1.922,0,0,1-.7,1.456,3.232,3.232,0,0,1-2.215.632,3.825,3.825,0,0,1-2.5-.774,3.355,3.355,0,0,1-1.2-1.851h-3.384a5.446,5.446,0,0,0,2.215,3.86,7.912,7.912,0,0,0,4.9,1.456,6.927,6.927,0,0,0,4.6-1.424,4.39,4.39,0,0,0,1.661-3.575,3.684,3.684,0,0,0-.822-2.594,5.181,5.181,0,0,0-2.167-1.345,27.514,27.514,0,0,0-2.927-.807,12.508,12.508,0,0,1-2.546-.854,1.443,1.443,0,0,1-.965-1.3,1.607,1.607,0,0,1,.7-1.344,3.215,3.215,0,0,1,1.961-.523,3.431,3.431,0,0,1,2.073.57,2.321,2.321,0,0,1,.932,1.582h3.227a5.1,5.1,0,0,0-1.914-3.575,6.739,6.739,0,0,0-4.255-1.265,6.53,6.53,0,0,0-4.43,1.377" transform="translate(-195.143 -56.689)" fill="#fff"/>
    </clipPath>
    <clipPath id="clip-path-6">
      <path id="Path_57" data-name="Path 57" d="M232.01,44.04V66.82h3.354v-8.1a5.329,5.329,0,0,1,1.25-3.8,4.136,4.136,0,0,1,3.148-1.329q3.637,0,3.637,4.556V66.82h3.323V57.8a7.622,7.622,0,0,0-1.613-5.283,5.692,5.692,0,0,0-4.43-1.772,6.352,6.352,0,0,0-3.116.775,5.623,5.623,0,0,0-2.2,2.136V44.04Z" transform="translate(-232.01 -44.04)" fill="#fff"/>
    </clipPath>
    <clipPath id="clip-path-7">
      <path id="Path_58" data-name="Path 58" d="M271.892,66.82h3.353V51.127h-3.353ZM272,44.626a2.063,2.063,0,0,0,0,2.942,2.388,2.388,0,0,0,3.133,0,2.062,2.062,0,0,0,0-2.942,2.386,2.386,0,0,0-3.133,0" transform="translate(-271.386 -44.04)" fill="#fff"/>
    </clipPath>
    <clipPath id="clip-path-8">
      <path id="Path_59" data-name="Path 59" d="M296.352,69.661a4.446,4.446,0,0,1-1.647-1.788,7.244,7.244,0,0,1,0-5.917,4.421,4.421,0,0,1,1.662-1.788,4.322,4.322,0,0,1,6.106,1.788,6.368,6.368,0,0,1,.617,2.959,6.243,6.243,0,0,1-.633,2.958,4.408,4.408,0,0,1-1.661,1.788,4.34,4.34,0,0,1-2.23.6,4.253,4.253,0,0,1-2.215-.6M294.58,57.717a7.582,7.582,0,0,0-2.864,2.878,8.54,8.54,0,0,0-1.061,4.319,8.649,8.649,0,0,0,1.044,4.318,7.5,7.5,0,0,0,2.832,2.878,7.932,7.932,0,0,0,4.034,1.029,8.017,8.017,0,0,0,4.048-1.029,7.567,7.567,0,0,0,2.864-2.878,9.323,9.323,0,0,0,0-8.638,7.621,7.621,0,0,0-2.848-2.878,8.393,8.393,0,0,0-8.051,0" transform="translate(-290.656 -56.689)" fill="#fff"/>
    </clipPath>
  </defs>
  <g id="Group_490" data-name="Group 490">
    <g id="Group_489" data-name="Group 489" clip-path="url(#clip-path)">
      <rect id="Rectangle_393" data-name="Rectangle 393" width="93.187" height="91.312" transform="translate(-30.728 51.757) rotate(-59.303)" fill="#fff"/>
    </g>
  </g>
  <g id="Group_492" data-name="Group 492">
    <g id="Group_491" data-name="Group 491" clip-path="url(#clip-path-2)">
      <path id="Path_52" data-name="Path 52" d="M79.587,63.7a10.045,10.045,0,0,1-10.715,1.232c-4.392-2.214-5.7-7.229-5.286-10.425.035-.272.078-.5.113-.66-.027-.168-.068-.386-.133-.637-.7-2.732-3.443-6.691-7.75-6.753-4.481-.064-8.774,4.434-8.147,9.985A16.809,16.809,0,0,0,70.842,71.826,17.5,17.5,0,0,0,79.587,63.7" transform="translate(-22.362 -21.819)" fill="#211f99"/>
      <path id="Path_53" data-name="Path 53" d="M90.606,14.952c-3.169-.148-6.093,1.74-6.651,4.406V44.194A6.37,6.37,0,0,0,89.867,48.2c3.025.139,5.844-1.53,6.651-4.005V19.358c-.5-2.443-3-4.271-5.912-4.406m-.37,13.037a5.451,5.451,0,1,1,5.451-5.451,5.451,5.451,0,0,1-5.451,5.451" transform="translate(-39.433 -7.019)" fill="#211f99"/>
    </g>
  </g>
  <g id="Group_494" data-name="Group 494" transform="translate(64.221 30.442)">
    <g id="Group_493" data-name="Group 493" clip-path="url(#clip-path-3)">
      <rect id="Rectangle_395" data-name="Rectangle 395" width="14.712" height="16.072" transform="translate(0)" fill="#fff"/>
    </g>
  </g>
  <g id="Group_496" data-name="Group 496" transform="translate(85.703 23.355)">
    <g id="Group_495" data-name="Group 495" clip-path="url(#clip-path-4)">
      <rect id="Rectangle_396" data-name="Rectangle 396" width="14.364" height="22.78" transform="translate(0 0)" fill="#fff"/>
    </g>
  </g>
  <g id="Group_498" data-name="Group 498" transform="translate(103.485 30.062)">
    <g id="Group_497" data-name="Group 497" clip-path="url(#clip-path-5)">
      <rect id="Rectangle_397" data-name="Rectangle 397" width="13.403" height="16.452" transform="translate(0 0)" fill="#fff"/>
    </g>
  </g>
  <g id="Group_500" data-name="Group 500" transform="translate(123.036 23.355)">
    <g id="Group_499" data-name="Group 499" clip-path="url(#clip-path-6)">
      <rect id="Rectangle_398" data-name="Rectangle 398" width="14.712" height="22.78" transform="translate(0 0)" fill="#fff"/>
    </g>
  </g>
  <g id="Group_502" data-name="Group 502" transform="translate(143.917 23.355)">
    <g id="Group_501" data-name="Group 501" clip-path="url(#clip-path-7)">
      <rect id="Rectangle_399" data-name="Rectangle 399" width="4.365" height="22.78" transform="translate(0 0)" fill="#fff"/>
    </g>
  </g>
  <g id="Group_504" data-name="Group 504" transform="translate(154.136 30.062)">
    <g id="Group_503" data-name="Group 503" clip-path="url(#clip-path-8)">
      <rect id="Rectangle_400" data-name="Rectangle 400" width="15.883" height="16.452" transform="translate(0 0)" fill="#fff"/>
    </g>
  </g>
  <g id="Group_506" data-name="Group 506">
    <g id="Group_505" data-name="Group 505" clip-path="url(#clip-path-2)">
      <path id="Path_60" data-name="Path 60" d="M96.4,24.9a4.949,4.949,0,1,1-4.949-4.949A4.95,4.95,0,0,1,96.4,24.9" transform="translate(-40.628 -9.372)" fill="#fff"/>
      <circle id="Ellipse_22" data-name="Ellipse 22" cx="4.949" cy="4.949" r="4.949" transform="translate(45.871 10.581)" fill="#211f99" stroke="#412f7d" stroke-width="0.75"/>
    </g>
  </g>
</svg>
