<svg xmlns="http://www.w3.org/2000/svg" xmlns:xlink="http://www.w3.org/1999/xlink" width="721.963" height="715.667" viewBox="0 0 721.963 715.667">
  <defs>
    <clipPath id="clip-path">
      <rect id="Rectangle_325" data-name="Rectangle 325" width="721.963" height="715.667" fill="#211f99"/>
    </clipPath>
  </defs>
  <g id="Group_441" data-name="Group 441" transform="translate(0 0)" opacity="0.017">
    <g id="Group_439" data-name="Group 439" transform="translate(0 0)" clip-path="url(#clip-path)">
      <path id="Path_16" data-name="Path 16" d="M30.59,25.715c-14.2,39.4-21.6,81.447-20.7,123.452-.051,42.055,8.475,83.983,23.678,123.158,30.331,78.542,89.909,145.41,164.73,184.8a340.6,340.6,0,0,0,120.367,37.8c21,2.217,42.234,3.479,63.4,2.46,21.13-1.44,42.221-4.116,62.866-9.074,82.7-19.333,157.657-69.876,207.1-139.331C603.359,418.958,528.73,470.61,445.588,491.013c-20.747,5.225-41.992,8.156-63.312,9.838-21.359,1.274-42.82.229-64.1-1.784a345.463,345.463,0,0,1-122.432-37.021C119.314,422.883,57.761,355.467,25.811,275.384,9.818,235.444.591,192.509.17,149.32-1.219,106.194,5.905,62.8,20.115,21.981a5.56,5.56,0,1,1,10.5,3.658Z" transform="translate(-0.005 214.267)" fill="#211f99"/>
      <path id="Path_17" data-name="Path 17" d="M599.086,468c12.489-37.378,19.027-76.949,18.033-116.468.242-39.621-7.991-78.975-21.308-116.137A358.545,358.545,0,0,0,537.418,132.47a355.987,355.987,0,0,0-89.769-77.5,361.557,361.557,0,0,0-110.3-44.133L307.834,6.164c-9.826-1.695-19.868-1.44-29.8-2.243-19.893-1.5-39.927-.127-59.706,2.345C138.975,16.028,63.722,54.451,8.081,112.156,63.046,53.826,138.1,14.269,217.963,3.513,237.869.786,258.055-.833,278.153.442c10.03.7,20.174.344,30.127,1.924L338.19,6.75A366.667,366.667,0,0,1,450.516,50.207a362.511,362.511,0,0,1,92.241,77.815,366.62,366.62,0,0,1,60.878,104.463c14.069,37.888,22.965,78.185,23.207,118.864,1.478,40.59-4.766,81.409-17.2,120.138a5.556,5.556,0,1,1-10.578-3.4l.026-.089" transform="translate(94.904 -0.01)" fill="#211f99"/>
      <path id="Path_18" data-name="Path 18" d="M35.259,612.428a323.985,323.985,0,0,0,186.675-80.364A324.621,324.621,0,0,0,322.485,354.45a332.786,332.786,0,0,0,2.995-103.724,319.622,319.622,0,0,0-30.407-99.391c-30.5-62.777-82.709-114.429-145.1-146.047,62.8,30.79,115.984,81.893,147.576,144.811a322.637,322.637,0,0,1,32.064,100.053,337.843,337.843,0,0,1-1.657,105.3,331.572,331.572,0,0,1-100.41,182.775C175.214,586.2,107.148,616.481,36.228,623.5a5.558,5.558,0,1,1-1.1-11.062l.127-.013" transform="translate(353.74 62.113)" fill="#211f99"/>
      <path id="Path_19" data-name="Path 19" d="M363.3,14.931C285.641,6.354,204.946,26.592,141.289,72.623,77.429,118.056,30.952,187.829,14.563,265.007a335.861,335.861,0,0,0-3.39,117.564A321.854,321.854,0,0,0,50.565,493.585c39.073,68.945,105.3,121.476,180.762,146.1C155.6,615.953,88.389,564.059,48.169,494.987A325.165,325.165,0,0,1,7.056,383.234,340.951,340.951,0,0,1,9.121,263.86C24.885,185.166,71.414,113.264,136.4,65.869,201.136,17.875,284.074-4.083,364.514,3.882a5.558,5.558,0,0,1-1.1,11.062l-.115-.013" transform="translate(32.539 26.804)" fill="#211f99"/>
      <path id="Path_20" data-name="Path 20" d="M20.825,317.877c43.253,49.867,104.565,84.187,170.35,93.567,16.376,2.4,33.033,3.785,49.613,2.753,16.644-.153,33.109-2.613,49.46-5.531,32.65-6.461,63.873-19.562,92.076-37.213A286.136,286.136,0,0,0,502.4,216.179C522.189,152.191,519.359,81,492.406,19.118c27.795,61.516,31.745,132.971,12.655,197.877-19.435,64.867-62.624,122.279-119.743,159.148-28.508,18.4-60.254,32.23-93.618,39.315-16.707,3.237-33.568,5.977-50.645,6.372-17.013,1.274-34.141.1-51.053-2.128-67.862-8.73-131.85-43.266-177.525-94.484a5.56,5.56,0,0,1,8.3-7.4l.051.064" transform="translate(130.039 224.521)" fill="#211f99"/>
      <path id="Path_21" data-name="Path 21" d="M492.649,99.7C448.657,53.529,388.492,22.879,324.81,15.22c-63.453-7.251-130.066,5.773-184.343,40.832C86.165,90.3,42.925,143.145,22.572,204.7c-10.4,30.649-15.051,63.019-15.28,95.44A284.823,284.823,0,0,0,24.968,395.4,285.952,285.952,0,0,1,5.9,300.164c-.242-32.561,3.976-65.237,14.044-96.345C39.611,141.373,82.6,87.071,137.485,51.362,192.323,14.838,260.363.386,325.779,6.936c65.67,6.946,128.435,37.684,174.848,85.028a5.556,5.556,0,1,1-7.914,7.8l-.064-.064" transform="translate(69.21 63.511)" fill="#211f99"/>
      <path id="Path_22" data-name="Path 22" d="M275.2,429.671c43.113-36.244,73.036-88.342,81.332-144.479,8.322-55.946-2.893-115.308-34.09-163.251A240.453,240.453,0,0,0,188.629,20.817C133.741,4.1,72.671,8.519,20.306,32.668,72.263,7.677,133.6,2.134,189.394,18.153,245.3,33.675,295.119,70.136,327.106,118.92c32.714,48.542,45.369,109.446,37.671,167.47-7.659,58.253-37.837,113.065-82.365,151.731a5.551,5.551,0,1,1-7.277-8.386l.064-.064" transform="translate(238.475 107.056)" fill="#211f99"/>
      <path id="Path_23" data-name="Path 23" d="M96.05,23.322C54.466,60.178,26.3,112.122,19,167.6c-7.06,55.258,4.448,113.562,35.53,160.639a241.019,241.019,0,0,0,132.207,99.505c54.086,16.555,114.2,12.808,166.144-10.323a241.181,241.181,0,0,1-166.922,12.986c-55.042-15.522-104.144-51.282-136.081-99.123-32.587-47.65-45.547-107.445-39.15-164.755C17.342,108.987,45.7,54.354,88.607,15.077a5.556,5.556,0,1,1,7.519,8.182l-.076.064" transform="translate(107.384 159.809)" fill="#211f99"/>
    </g>
  </g>
</svg>
