<svg xmlns="http://www.w3.org/2000/svg" width="311.296" height="50.93" viewBox="0 0 311.296 50.93">
  <g id="Logo_9" data-name="Logo 9" transform="translate(-165.134 -191.618)">
    <g id="Group_1" data-name="Group 1" transform="translate(165.915 192.555)">
      <line id="Line_3" data-name="Line 3" x1="12.593" y1="20.886" transform="translate(27.337)" fill="none" stroke="#fff" stroke-width="1.5"/>
      <line id="Line_4" data-name="Line 4" x2="27.644" y2="16.586" transform="translate(0 26.108)" fill="none" stroke="#fff" stroke-width="1.5"/>
      <line id="Line_5" data-name="Line 5" x1="39.93" y2="5.222" transform="translate(0 20.886)" fill="none" stroke="#fff" stroke-width="1.5"/>
      <line id="Line_6" data-name="Line 6" x1="36.551" y2="20.579" transform="translate(0 5.529)" fill="none" stroke="#fff" stroke-width="1.5"/>
      <line id="Line_7" data-name="Line 7" x2="11.825" y2="22.883" transform="translate(0 26.108)" fill="none" stroke="#fff" stroke-width="1.5"/>
      <path id="Path_1" data-name="Path 1" d="M168.372,211.481h25.187l12.286-21.808-3.379-15.358-9.215-5.529-27.337,26.108" transform="translate(-165.915 -168.786)" fill="none" stroke="#fff" stroke-width="1.5"/>
      <path id="Path_2" data-name="Path 2" d="M186.494,229.4l-8.754,10.6-9.368-6.3-2.457-16.586,11.979-20.886,24.572.307" transform="translate(-165.915 -191.002)" fill="none" stroke="#fff" stroke-width="1.5"/>
      <line id="Line_8" data-name="Line 8" x1="19.197" y2="17.354" transform="translate(20.579 21.04)" fill="none" stroke="#fff" stroke-width="1.5"/>
    </g>
    <g id="Group_2" data-name="Group 2" transform="translate(227.633 203.238)">
      <path id="Path_3" data-name="Path 3" d="M482.146,273.628V247.34c0-.393.2-.63.522-.63h7.825c4.695,0,7.76,3.148,7.76,8.067V266.19c0,4.919-3.065,8.067-7.76,8.067h-7.825C482.342,274.257,482.146,274.021,482.146,273.628Zm3.978-3.306h4.532c2.282,0,3.782-1.889,3.815-4.84v-9.956c0-2.991-1.5-4.88-3.847-4.88h-4.5q-.2,0-.2.236v19.2Q485.928,270.322,486.124,270.322Z" transform="translate(-482.146 -246.671)" fill="#fff"/>
      <path id="Path_4" data-name="Path 4" d="M574.991,250.646H564.036q-.2,0-.2.236v7.28a.211.211,0,0,0,.2.236h7.3c.326,0,.522.236.522.63V261.7c0,.393-.2.63-.522.63h-7.3a.209.209,0,0,0-.2.236v7.516a.211.211,0,0,0,.2.236h10.955c.326,0,.522.236.522.63v2.676c0,.394-.2.63-.522.63H560.579c-.326,0-.522-.236-.522-.63V247.34c0-.393.2-.63.522-.63h14.411c.326,0,.522.236.522.63v2.676c0,.394-.2.63-.522.63Z" transform="translate(-538.929 -246.671)" fill="#fff"/>
      <path id="Path_5" data-name="Path 5" d="M649.775,250.646H638.82q-.2,0-.2.236v7.28a.211.211,0,0,0,.2.236h7.3c.326,0,.522.236.522.63V261.7c0,.393-.2.63-.522.63h-7.3a.209.209,0,0,0-.2.236v7.516a.211.211,0,0,0,.2.236h10.955c.326,0,.522.236.522.63v2.676c0,.394-.2.63-.522.63H635.364c-.326,0-.522-.236-.522-.63V247.34c0-.393.2-.63.522-.63h14.411c.326,0,.522.236.522.63v2.676c0,.394-.2.63-.522.63Z" transform="translate(-593.434 -246.671)" fill="#fff"/>
      <path id="Path_6" data-name="Path 6" d="M725.177,254.79c0,4.88-2.836,8.107-7.108,8.107h-5.184a.209.209,0,0,0-.2.236v10.389c0,.394-.2.63-.522.63h-2.739c-.326,0-.522-.236-.522-.63V247.2c0-.394.2-.63.522-.63h8.836C722.405,246.566,725.177,249.871,725.177,254.79Zm-3.782.118c0-2.637-1.467-4.407-3.684-4.407h-4.826a.209.209,0,0,0-.2.236v8.225a.211.211,0,0,0,.2.236h4.826c2.217,0,3.684-1.732,3.684-4.289Z" transform="translate(-647.413 -246.566)" fill="#fff"/>
      <path id="Path_7" data-name="Path 7" d="M797.065,273.679l-4.271-11.255a.216.216,0,0,0-.228-.157h-3.815a.209.209,0,0,0-.2.236v11.019c0,.394-.2.63-.522.63H785.3c-.326,0-.522-.236-.522-.63V247.2c0-.394.2-.63.522-.63h8.836c4.043,0,6.749,3.227,6.749,8.028,0,3.66-1.663,6.3-4.336,7.241a.212.212,0,0,0-.1.315l4.5,11.255c.163.433,0,.748-.391.748h-2.869a.6.6,0,0,1-.619-.472Zm-8.51-22.942v7.752q0,.236.2.236h4.858c2.087,0,3.489-1.653,3.489-4.053,0-2.479-1.4-4.171-3.489-4.171h-4.858Q788.556,250.5,788.556,250.737Z" transform="translate(-702.705 -246.566)" fill="#fff"/>
      <path id="Path_8" data-name="Path 8" d="M877.015,250.646H866.06q-.2,0-.2.236v7.28a.211.211,0,0,0,.2.236h7.3c.326,0,.522.236.522.63V261.7c0,.393-.2.63-.522.63h-7.3a.209.209,0,0,0-.2.236v7.516a.211.211,0,0,0,.2.236h10.955c.326,0,.522.236.522.63v2.676c0,.394-.2.63-.522.63H862.6c-.326,0-.521-.236-.521-.63V247.34c0-.393.2-.63.521-.63h14.411c.326,0,.522.236.522.63v2.676c0,.394-.2.63-.522.63Z" transform="translate(-759.049 -246.671)" fill="#fff"/>
      <path id="Path_9" data-name="Path 9" d="M946.982,273.746l-1.011-4.053a.215.215,0,0,0-.228-.2H937.2a.215.215,0,0,0-.228.2l-1.011,4.053c-.1.354-.294.512-.587.512h-2.967c-.359,0-.522-.275-.424-.708l6.977-26.327c.1-.354.294-.512.587-.512h3.814c.294,0,.489.158.587.512l7.01,26.327c.1.433-.065.708-.424.708h-2.967C947.275,274.257,947.079,274.1,946.982,273.746Zm-8.836-7.831H944.8c.13,0,.2-.079.163-.275l-3.358-13.38c-.065-.2-.2-.2-.261,0l-3.358,13.38C937.95,265.836,938.015,265.915,938.146,265.915Z" transform="translate(-809.973 -246.671)" fill="#fff"/>
      <path id="Path_10" data-name="Path 10" d="M1018.386,273.628V247.34c0-.393.2-.63.522-.63h2.739c.326,0,.521.236.521.63v22.746a.211.211,0,0,0,.2.236h10.759c.326,0,.521.236.521.63v2.676c0,.394-.2.63-.521.63h-14.216c-.326,0-.522-.236-.522-.63Z" transform="translate(-872.965 -246.671)" fill="#fff"/>
      <path id="Path_11" data-name="Path 11" d="M1090.647,273.628V247.34c0-.393.2-.63.521-.63h2.739c.326,0,.522.236.522.63v26.287c0,.394-.2.63-.522.63h-2.739C1090.843,274.257,1090.647,274.021,1090.647,273.628Z" transform="translate(-925.63 -246.671)" fill="#fff"/>
      <path id="Path_12" data-name="Path 12" d="M1137.727,247.34v2.715c0,.394-.2.63-.521.63h-5.836q-.2,0-.2.236v22.706c0,.394-.2.63-.522.63h-2.739c-.326,0-.522-.236-.522-.63V250.921a.211.211,0,0,0-.2-.236h-5.608c-.326,0-.522-.236-.522-.63V247.34c0-.393.2-.63.522-.63h15.618C1137.532,246.711,1137.727,246.947,1137.727,247.34Z" transform="translate(-947.8 -246.671)" fill="#fff"/>
      <path id="Path_13" data-name="Path 13" d="M1201.077,273.588V263.239a.847.847,0,0,0-.065-.275l-6.586-15.5c-.2-.433-.033-.748.359-.748h2.967a.643.643,0,0,1,.62.472L1202.838,258c.065.157.2.157.261,0l4.5-10.822a.643.643,0,0,1,.619-.472h3c.391,0,.554.315.359.748l-6.651,15.5a1.169,1.169,0,0,0-.065.275v10.349c0,.394-.2.63-.522.63H1201.6C1201.273,274.218,1201.077,273.982,1201.077,273.588Z" transform="translate(-1001.205 -246.671)" fill="#fff"/>
      <path id="Path_14" data-name="Path 14" d="M1261.259,329.223a2.661,2.661,0,1,1,5.282,0,2.821,2.821,0,0,1-2.673,3.03A2.772,2.772,0,0,1,1261.259,329.223Z" transform="translate(-1049.974 -304.628)" fill="#fff"/>
      <path id="Path_15" data-name="Path 15" d="M1314.235,273.746l-1.011-4.053a.215.215,0,0,0-.228-.2h-8.542a.215.215,0,0,0-.228.2l-1.01,4.053c-.1.354-.294.512-.587.512h-2.967c-.359,0-.522-.275-.424-.708l6.977-26.327c.1-.354.293-.512.587-.512h3.814c.294,0,.489.158.587.512l7.01,26.327c.1.433-.066.708-.424.708h-2.967C1314.528,274.257,1314.333,274.1,1314.235,273.746Zm-8.836-7.831h6.651c.13,0,.2-.079.163-.275l-3.358-13.38c-.065-.2-.2-.2-.261,0l-3.358,13.38C1305.2,265.836,1305.268,265.915,1305.4,265.915Z" transform="translate(-1077.633 -246.671)" fill="#fff"/>
      <path id="Path_16" data-name="Path 16" d="M1385.64,273.628V247.34c0-.393.2-.63.522-.63h2.739c.326,0,.521.236.521.63v26.287c0,.394-.2.63-.521.63h-2.739C1385.835,274.257,1385.64,274.021,1385.64,273.628Z" transform="translate(-1140.624 -246.671)" fill="#fff"/>
    </g>
  </g>
</svg>
