<svg id="loupe" xmlns="http://www.w3.org/2000/svg" width="24.756" height="24.756" viewBox="0 0 24.756 24.756">
  <g id="Group_451" data-name="Group 451" transform="translate(0 0)">
    <g id="Group_450" data-name="Group 450">
      <path id="Path_31" data-name="Path 31" d="M10.9,0A10.9,10.9,0,1,0,21.8,10.9,10.915,10.915,0,0,0,10.9,0Zm0,19.792A8.889,8.889,0,1,1,19.791,10.9,8.9,8.9,0,0,1,10.9,19.792Z" transform="translate(0 0)" fill="#737272"/>
    </g>
  </g>
  <g id="Group_453" data-name="Group 453" transform="translate(16.974 16.974)">
    <g id="Group_452" data-name="Group 452">
      <path id="Path_32" data-name="Path 32" d="M358.533,357.11l-5.77-5.77a1.006,1.006,0,0,0-1.423,1.423l5.77,5.77a1.006,1.006,0,0,0,1.423-1.423Z" transform="translate(-351.046 -351.046)" fill="#737272"/>
    </g>
  </g>
</svg>
