<svg xmlns="http://www.w3.org/2000/svg" width="25.392" height="25.392" viewBox="0 0 25.392 25.392">
  <g id="settings" transform="translate(0.196 -8.44)">
    <g id="Group_445" data-name="Group 445" transform="translate(0 8.636)">
      <g id="Group_444" data-name="Group 444">
        <path id="Path_27" data-name="Path 27" d="M24.236,187.242c-.4-.238-.8-.478-1.211-.713a10.544,10.544,0,0,0,0-2.455c.409-.236.816-.475,1.211-.713a1.591,1.591,0,0,0,.644-1.961h0l-.868-2.094a1.591,1.591,0,0,0-1.842-.931c-.447.111-.9.23-1.36.352a10.548,10.548,0,0,0-1.737-1.736c.122-.456.241-.913.352-1.361a1.591,1.591,0,0,0-.931-1.842L16.4,172.92a1.591,1.591,0,0,0-1.961.644c-.238.4-.478.8-.713,1.211a10.546,10.546,0,0,0-2.455,0c-.236-.409-.476-.816-.713-1.211A1.591,1.591,0,0,0,8.6,172.92l-2.094.868a1.591,1.591,0,0,0-.931,1.842c.112.448.23.906.352,1.36a10.54,10.54,0,0,0-1.736,1.737c-.457-.123-.914-.241-1.361-.352a1.591,1.591,0,0,0-1.842.931L.119,181.4a1.591,1.591,0,0,0,.644,1.961c.4.238.8.478,1.211.713a10.552,10.552,0,0,0,0,2.455c-.408.236-.815.475-1.211.713A1.591,1.591,0,0,0,.119,189.2L.986,191.3a1.591,1.591,0,0,0,1.842.931c.447-.111.9-.23,1.36-.352a10.552,10.552,0,0,0,1.737,1.736c-.122.456-.241.914-.352,1.361a1.591,1.591,0,0,0,.931,1.842l2.095.868a1.565,1.565,0,0,0,.6.119,1.591,1.591,0,0,0,1.361-.763c.236-.393.476-.8.713-1.211a10.564,10.564,0,0,0,2.455,0c.234.406.474.813.713,1.211a1.591,1.591,0,0,0,1.961.644l2.094-.868a1.591,1.591,0,0,0,.931-1.842c-.111-.445-.229-.9-.352-1.36a10.552,10.552,0,0,0,1.736-1.737c.455.122.913.24,1.361.352a1.591,1.591,0,0,0,1.842-.931l.868-2.095A1.591,1.591,0,0,0,24.236,187.242Zm-1.749,3.324c-.43-.108-.869-.222-1.3-.339a1.578,1.578,0,0,0-1.66.553,8.855,8.855,0,0,1-1.545,1.546,1.577,1.577,0,0,0-.552,1.659c.118.439.232.877.339,1.3l-1.925.8c-.229-.382-.458-.772-.682-1.162a1.578,1.578,0,0,0-1.564-.783,8.866,8.866,0,0,1-2.186,0,1.577,1.577,0,0,0-1.565.782c-.227.394-.456.784-.683,1.163l-1.925-.8c.108-.429.222-.868.339-1.3a1.578,1.578,0,0,0-.553-1.66,8.855,8.855,0,0,1-1.546-1.545,1.577,1.577,0,0,0-1.659-.552c-.437.118-.875.232-1.3.339l-.8-1.925c.38-.228.771-.457,1.162-.682a1.578,1.578,0,0,0,.783-1.564,8.866,8.866,0,0,1,0-2.186,1.578,1.578,0,0,0-.782-1.565c-.391-.225-.782-.454-1.162-.683l.8-1.925c.429.108.867.221,1.3.339a1.578,1.578,0,0,0,1.66-.553,8.853,8.853,0,0,1,1.545-1.546,1.577,1.577,0,0,0,.552-1.659c-.117-.435-.231-.873-.339-1.3l1.925-.8c.227.379.457.77.682,1.162a1.577,1.577,0,0,0,1.564.783,8.849,8.849,0,0,1,2.186,0,1.578,1.578,0,0,0,1.565-.783c.225-.391.454-.782.683-1.162l1.925.8c-.108.43-.222.868-.339,1.3a1.578,1.578,0,0,0,.553,1.66,8.86,8.86,0,0,1,1.546,1.545,1.577,1.577,0,0,0,1.659.552c.436-.117.874-.231,1.3-.339l.8,1.925c-.38.228-.77.457-1.162.682a1.578,1.578,0,0,0-.783,1.564,8.857,8.857,0,0,1,0,2.186,1.578,1.578,0,0,0,.783,1.565c.39.225.781.454,1.162.683Z" transform="translate(0 -172.801)" fill="#fff" stroke="#fff" stroke-width="0.3"/>
      </g>
    </g>
    <g id="Group_447" data-name="Group 447" transform="translate(6.743 15.379)">
      <g id="Group_446" data-name="Group 446">
        <path id="Path_28" data-name="Path 28" d="M102.569,267.847h0a5.763,5.763,0,1,0-3.115,7.521A5.763,5.763,0,0,0,102.569,267.847Zm-3.762,5.961a4.068,4.068,0,1,1,2.2-5.314A4.042,4.042,0,0,1,98.807,273.808Z" transform="translate(-91.494 -264.293)" fill="#fff" stroke="#fff" stroke-width="0.3"/>
      </g>
    </g>
  </g>
</svg>
